<svg id="visual" viewBox="0 0 900 600" width="900" height="600" xmlns="http://www.w3.org/2000/svg" xmlns:xlink="http://www.w3.org/1999/xlink" version="1.1"><rect x="0" y="0" width="900" height="600" fill="#FFFFFF"></rect><defs><linearGradient id="grad1_0" x1="33.3%" y1="0%" x2="100%" y2="100%"><stop offset="20%" stop-color="#ffffff" stop-opacity="1"></stop><stop offset="80%" stop-color="#ffffff" stop-opacity="1"></stop></linearGradient></defs><defs><linearGradient id="grad2_0" x1="0%" y1="0%" x2="66.7%" y2="100%"><stop offset="20%" stop-color="#ffffff" stop-opacity="1"></stop><stop offset="80%" stop-color="#ffffff" stop-opacity="1"></stop></linearGradient></defs><g transform="translate(900, 0)"><path d="M0 216.3C-38.9 211.3 -77.9 206.3 -108.2 187.3C-138.5 168.4 -160.1 135.5 -176.7 102C-193.3 68.5 -204.8 34.2 -216.3 0L0 0Z" fill="#DA001b"></path></g><g transform="translate(0, 600)"><path d="M0 -216.3C39.7 -211.8 79.5 -207.2 108.2 -187.3C136.8 -167.5 154.4 -132.3 170.6 -98.5C186.8 -64.7 201.6 -32.4 216.3 0L0 0Z" fill="#DA001b"></path></g></svg>