<svg id="visual" viewBox="0 0 900 450" width="900" height="450" xmlns="http://www.w3.org/2000/svg" xmlns:xlink="http://www.w3.org/1999/xlink" version="1.1"><path d="M0 145L82 96L164 105L245 132L327 150L409 118L491 78L573 123L655 172L736 136L818 109L900 96L900 0L818 0L736 0L655 0L573 0L491 0L409 0L327 0L245 0L164 0L82 0L0 0Z" fill="#0066ff"></path><path d="M0 222L82 154L164 204L245 199L327 186L409 195L491 159L573 199L655 253L736 204L818 199L900 132L900 94L818 107L736 134L655 170L573 121L491 76L409 116L327 148L245 130L164 103L82 94L0 143Z" fill="#3358f2"></path><path d="M0 357L82 352L164 325L245 357L327 303L409 294L491 316L573 330L655 330L736 325L818 334L900 303L900 130L818 197L736 202L655 251L573 197L491 157L409 193L327 184L245 197L164 202L82 152L0 220Z" fill="#4749e4"></path><path d="M0 420L82 402L164 375L245 402L327 388L409 375L491 406L573 384L655 424L736 379L818 379L900 388L900 301L818 332L736 323L655 328L573 328L491 314L409 292L327 301L245 355L164 323L82 350L0 355Z" fill="#5538d6"></path><path d="M0 451L82 451L164 451L245 451L327 451L409 451L491 451L573 451L655 451L736 451L818 451L900 451L900 386L818 377L736 377L655 422L573 382L491 404L409 373L327 386L245 400L164 373L82 400L0 418Z" fill="#5f24c7"></path></svg>